<?xml version="1.0" standalone="no"?>
<!DOCTYPE svg PUBLIC "-//W3C//DTD SVG 20010904//EN"
 "http://www.w3.org/TR/2001/REC-SVG-20010904/DTD/svg10.dtd">
<svg version="1.0" xmlns="http://www.w3.org/2000/svg"
 width="50.000000pt" height="50.000000pt" viewBox="0 0 50.000000 50.000000"
 preserveAspectRatio="xMidYMid meet">

<g transform="translate(0.000000,50.000000) scale(0.100000,-0.100000)"
fill="#000000" stroke="none">
<path d="M126 465 c-83 -29 -127 -106 -106 -184 5 -21 17 -44 25 -51 20 -17
19 -30 -7 -57 -19 -21 -20 -26 -8 -34 17 -10 74 -3 105 14 11 6 41 12 67 13
150 8 219 169 113 263 -34 29 -90 51 -130 51 -11 -1 -37 -7 -59 -15z m154
-115 c0 -6 -37 -10 -90 -10 -53 0 -90 4 -90 10 0 6 37 10 90 10 53 0 90 -4 90
-10z m-70 -60 c0 -5 -25 -10 -55 -10 -30 0 -55 5 -55 10 0 6 25 10 55 10 30 0
55 -4 55 -10z m70 0 c0 -5 -11 -10 -25 -10 -14 0 -25 5 -25 10 0 6 11 10 25
10 14 0 25 -4 25 -10z"/>
<path d="M390 315 c0 -88 -78 -165 -176 -173 -30 -2 -54 -8 -54 -12 0 -5 14
-20 30 -34 34 -28 102 -50 133 -42 11 2 29 -1 41 -9 29 -19 88 -27 106 -16 12
8 11 13 -8 34 -27 29 -27 31 0 67 33 45 30 117 -5 164 -16 20 -37 40 -47 46
-18 10 -20 7 -20 -25z"/>
</g>
</svg>
